<mxfile host="app.diagrams.net" modified="2024-05-21T02:40:03.448Z" agent="Mozilla/5.0 (Windows NT 10.0; Win64; x64) AppleWebKit/537.36 (KHTML, like Gecko) Chrome/124.0.0.0 Safari/537.36" etag="faGYnwJxBW6xUmGdscPY" version="24.3.0" type="device">
  <diagram name="PÃ¡gina-1" id="iWiwzwbW_C4mwSXMXE-9">
    <mxGraphModel dx="1531" dy="347" grid="1" gridSize="10" guides="1" tooltips="1" connect="1" arrows="1" fold="1" page="1" pageScale="1" pageWidth="827" pageHeight="1169" math="0" shadow="0">
      <root>
        <mxCell id="0" />
        <mxCell id="1" parent="0" />
        <mxCell id="LuY9t5Rripphyfl5IGte-61" style="rounded=0;orthogonalLoop=1;jettySize=auto;html=1;exitX=0;exitY=0.25;exitDx=0;exitDy=0;entryX=1;entryY=0.5;entryDx=0;entryDy=0;endArrow=none;endFill=0;labelBackgroundColor=none;strokeColor=default;fontColor=default;sketch=0;curveFitting=0;jiggle=0;shadow=1;fillStyle=auto;align=center;verticalAlign=middle;fontFamily=Helvetica;fontSize=12;fillColor=default;" parent="1" source="hKpoZKge59YQVljIcjRe-1" target="LuY9t5Rripphyfl5IGte-59" edge="1">
          <mxGeometry relative="1" as="geometry" />
        </mxCell>
        <mxCell id="LuY9t5Rripphyfl5IGte-62" style="rounded=0;orthogonalLoop=1;jettySize=auto;html=1;exitX=0;exitY=0;exitDx=0;exitDy=0;entryX=1;entryY=0.5;entryDx=0;entryDy=0;endArrow=none;endFill=0;labelBackgroundColor=none;strokeColor=default;fontColor=default;sketch=0;curveFitting=0;jiggle=0;shadow=1;fillStyle=auto;align=center;verticalAlign=middle;fontFamily=Helvetica;fontSize=12;fillColor=default;" parent="1" source="hKpoZKge59YQVljIcjRe-1" target="LuY9t5Rripphyfl5IGte-135" edge="1">
          <mxGeometry relative="1" as="geometry">
            <mxPoint x="-204.64466094067257" y="369.14213562373095" as="targetPoint" />
          </mxGeometry>
        </mxCell>
        <mxCell id="LuY9t5Rripphyfl5IGte-89" style="edgeStyle=orthogonalEdgeStyle;rounded=0;orthogonalLoop=1;jettySize=auto;html=1;exitX=0.25;exitY=0;exitDx=0;exitDy=0;labelBackgroundColor=none;strokeColor=default;fontColor=default;sketch=0;curveFitting=0;jiggle=0;shadow=1;fillStyle=auto;align=center;verticalAlign=middle;fontFamily=Helvetica;fontSize=12;fillColor=default;" parent="1" source="hKpoZKge59YQVljIcjRe-1" edge="1">
          <mxGeometry relative="1" as="geometry">
            <mxPoint x="-74.66666666666652" y="409.66666666666674" as="targetPoint" />
          </mxGeometry>
        </mxCell>
        <mxCell id="LuY9t5Rripphyfl5IGte-110" style="edgeStyle=orthogonalEdgeStyle;rounded=0;orthogonalLoop=1;jettySize=auto;html=1;exitX=0.5;exitY=1;exitDx=0;exitDy=0;entryX=0;entryY=0.5;entryDx=0;entryDy=0;strokeColor=default;fontColor=default;fillColor=default;endArrow=none;endFill=0;sketch=0;curveFitting=0;jiggle=0;shadow=1;fillStyle=auto;align=center;verticalAlign=middle;fontFamily=Helvetica;fontSize=12;labelBackgroundColor=none;" parent="1" source="hKpoZKge59YQVljIcjRe-1" target="LuY9t5Rripphyfl5IGte-109" edge="1">
          <mxGeometry relative="1" as="geometry" />
        </mxCell>
        <mxCell id="LuY9t5Rripphyfl5IGte-123" value="(1,1)" style="edgeLabel;html=1;align=center;verticalAlign=middle;resizable=0;points=[];strokeColor=default;fontColor=default;fillColor=default;rounded=0;sketch=0;curveFitting=0;jiggle=0;shadow=1;fillStyle=auto;fontFamily=Helvetica;fontSize=12;labelBackgroundColor=none;" parent="LuY9t5Rripphyfl5IGte-110" vertex="1" connectable="0">
          <mxGeometry x="-0.759" y="-1" relative="1" as="geometry">
            <mxPoint x="1" as="offset" />
          </mxGeometry>
        </mxCell>
        <mxCell id="hKpoZKge59YQVljIcjRe-1" value="Profissional" style="rounded=0;arcSize=10;whiteSpace=wrap;html=1;align=center;labelBackgroundColor=none;fillColor=default;strokeColor=default;fontColor=default;sketch=0;curveFitting=0;jiggle=0;shadow=1;fillStyle=auto;verticalAlign=middle;fontFamily=Helvetica;fontSize=12;" parent="1" vertex="1">
          <mxGeometry x="-100" y="410" width="100" height="40" as="geometry" />
        </mxCell>
        <mxCell id="LuY9t5Rripphyfl5IGte-30" style="rounded=0;orthogonalLoop=1;jettySize=auto;html=1;exitX=1;exitY=0.5;exitDx=0;exitDy=0;entryX=0;entryY=1;entryDx=0;entryDy=0;endArrow=none;endFill=0;labelBackgroundColor=none;strokeColor=default;fontColor=default;sketch=0;curveFitting=0;jiggle=0;shadow=1;fillStyle=auto;align=center;verticalAlign=middle;fontFamily=Helvetica;fontSize=12;fillColor=default;" parent="1" source="hKpoZKge59YQVljIcjRe-2" target="hKpoZKge59YQVljIcjRe-1" edge="1">
          <mxGeometry relative="1" as="geometry">
            <mxPoint x="-10" y="505" as="targetPoint" />
          </mxGeometry>
        </mxCell>
        <mxCell id="hKpoZKge59YQVljIcjRe-2" value="nome" style="ellipse;whiteSpace=wrap;html=1;align=center;labelBackgroundColor=none;fillColor=default;strokeColor=default;fontColor=default;rounded=0;sketch=0;curveFitting=0;jiggle=0;shadow=1;fillStyle=auto;verticalAlign=middle;fontFamily=Helvetica;fontSize=12;" parent="1" vertex="1">
          <mxGeometry x="-290" y="485" width="100" height="40" as="geometry" />
        </mxCell>
        <mxCell id="LuY9t5Rripphyfl5IGte-2" value="senha" style="ellipse;whiteSpace=wrap;html=1;align=center;labelBackgroundColor=none;fillColor=default;strokeColor=default;fontColor=default;rounded=0;sketch=0;curveFitting=0;jiggle=0;shadow=1;fillStyle=auto;verticalAlign=middle;fontFamily=Helvetica;fontSize=12;" parent="1" vertex="1">
          <mxGeometry x="230" y="10" width="100" height="40" as="geometry" />
        </mxCell>
        <mxCell id="LuY9t5Rripphyfl5IGte-21" style="rounded=0;orthogonalLoop=1;jettySize=auto;html=1;exitX=0.5;exitY=0;exitDx=0;exitDy=0;entryX=0.5;entryY=1;entryDx=0;entryDy=0;endArrow=none;endFill=0;labelBackgroundColor=none;strokeColor=default;fontColor=default;sketch=0;curveFitting=0;jiggle=0;shadow=1;fillStyle=auto;align=center;verticalAlign=middle;fontFamily=Helvetica;fontSize=12;fillColor=default;" parent="1" source="LuY9t5Rripphyfl5IGte-4" target="LuY9t5Rripphyfl5IGte-31" edge="1">
          <mxGeometry relative="1" as="geometry">
            <mxPoint x="364" y="80" as="targetPoint" />
          </mxGeometry>
        </mxCell>
        <mxCell id="LuY9t5Rripphyfl5IGte-82" style="edgeStyle=orthogonalEdgeStyle;rounded=0;orthogonalLoop=1;jettySize=auto;html=1;exitX=0.75;exitY=1;exitDx=0;exitDy=0;endArrow=none;endFill=0;labelBackgroundColor=none;strokeColor=default;fontColor=default;entryX=0.5;entryY=0;entryDx=0;entryDy=0;sketch=0;curveFitting=0;jiggle=0;shadow=1;fillStyle=auto;align=center;verticalAlign=middle;fontFamily=Helvetica;fontSize=12;fillColor=default;" parent="1" source="LuY9t5Rripphyfl5IGte-4" target="LuY9t5Rripphyfl5IGte-76" edge="1">
          <mxGeometry relative="1" as="geometry">
            <Array as="points">
              <mxPoint x="350" y="180" />
            </Array>
          </mxGeometry>
        </mxCell>
        <mxCell id="LuY9t5Rripphyfl5IGte-107" value="(1,N)" style="edgeLabel;html=1;align=center;verticalAlign=middle;resizable=0;points=[];strokeColor=default;fontColor=default;fillColor=default;rounded=0;sketch=0;curveFitting=0;jiggle=0;shadow=1;fillStyle=auto;fontFamily=Helvetica;fontSize=12;labelBackgroundColor=none;" parent="LuY9t5Rripphyfl5IGte-82" vertex="1" connectable="0">
          <mxGeometry x="-0.5961" y="-1" relative="1" as="geometry">
            <mxPoint x="1" y="9" as="offset" />
          </mxGeometry>
        </mxCell>
        <mxCell id="LuY9t5Rripphyfl5IGte-118" style="edgeStyle=orthogonalEdgeStyle;rounded=0;orthogonalLoop=1;jettySize=auto;html=1;exitX=0.25;exitY=1;exitDx=0;exitDy=0;entryX=0.5;entryY=0;entryDx=0;entryDy=0;strokeColor=default;fontColor=default;fillColor=default;endArrow=none;endFill=0;sketch=0;curveFitting=0;jiggle=0;shadow=1;fillStyle=auto;align=center;verticalAlign=middle;fontFamily=Helvetica;fontSize=12;labelBackgroundColor=none;" parent="1" source="LuY9t5Rripphyfl5IGte-4" target="LuY9t5Rripphyfl5IGte-117" edge="1">
          <mxGeometry relative="1" as="geometry">
            <Array as="points">
              <mxPoint x="295" y="340" />
              <mxPoint x="220" y="340" />
            </Array>
          </mxGeometry>
        </mxCell>
        <mxCell id="LuY9t5Rripphyfl5IGte-124" value="(1,1)" style="edgeLabel;html=1;align=center;verticalAlign=middle;resizable=0;points=[];strokeColor=default;fontColor=default;fillColor=default;rounded=0;sketch=0;curveFitting=0;jiggle=0;shadow=1;fillStyle=auto;fontFamily=Helvetica;fontSize=12;labelBackgroundColor=none;" parent="LuY9t5Rripphyfl5IGte-118" vertex="1" connectable="0">
          <mxGeometry x="-0.9239" y="-2" relative="1" as="geometry">
            <mxPoint as="offset" />
          </mxGeometry>
        </mxCell>
        <mxCell id="LuY9t5Rripphyfl5IGte-4" value="Integrante" style="rounded=0;arcSize=10;whiteSpace=wrap;html=1;align=center;labelBackgroundColor=none;fillColor=default;strokeColor=default;fontColor=default;sketch=0;curveFitting=0;jiggle=0;shadow=1;fillStyle=auto;verticalAlign=middle;fontFamily=Helvetica;fontSize=12;" parent="1" vertex="1">
          <mxGeometry x="270" y="140" width="100" height="40" as="geometry" />
        </mxCell>
        <mxCell id="LuY9t5Rripphyfl5IGte-39" style="edgeStyle=orthogonalEdgeStyle;rounded=0;orthogonalLoop=1;jettySize=auto;html=1;exitX=0.5;exitY=0;exitDx=0;exitDy=0;entryX=0;entryY=0.5;entryDx=0;entryDy=0;endArrow=none;endFill=0;labelBackgroundColor=none;strokeColor=default;fontColor=default;sketch=0;curveFitting=0;jiggle=0;shadow=1;fillStyle=auto;align=center;verticalAlign=middle;fontFamily=Helvetica;fontSize=12;fillColor=default;" parent="1" source="LuY9t5Rripphyfl5IGte-10" target="LuY9t5Rripphyfl5IGte-38" edge="1">
          <mxGeometry relative="1" as="geometry" />
        </mxCell>
        <mxCell id="LuY9t5Rripphyfl5IGte-98" value="(0,N)" style="edgeLabel;html=1;align=center;verticalAlign=middle;resizable=0;points=[];strokeColor=default;fontColor=default;fillColor=default;rounded=0;sketch=0;curveFitting=0;jiggle=0;shadow=1;fillStyle=auto;fontFamily=Helvetica;fontSize=12;labelBackgroundColor=none;" parent="LuY9t5Rripphyfl5IGte-39" vertex="1" connectable="0">
          <mxGeometry x="-0.6067" y="-2" relative="1" as="geometry">
            <mxPoint as="offset" />
          </mxGeometry>
        </mxCell>
        <mxCell id="LuY9t5Rripphyfl5IGte-101" style="edgeStyle=orthogonalEdgeStyle;rounded=0;orthogonalLoop=1;jettySize=auto;html=1;exitX=1;exitY=0.5;exitDx=0;exitDy=0;entryX=0;entryY=0.5;entryDx=0;entryDy=0;strokeColor=default;fontColor=default;fillColor=default;endArrow=none;endFill=0;sketch=0;curveFitting=0;jiggle=0;shadow=1;fillStyle=auto;align=center;verticalAlign=middle;fontFamily=Helvetica;fontSize=12;labelBackgroundColor=none;" parent="1" source="LuY9t5Rripphyfl5IGte-10" target="LuY9t5Rripphyfl5IGte-100" edge="1">
          <mxGeometry relative="1" as="geometry" />
        </mxCell>
        <mxCell id="LuY9t5Rripphyfl5IGte-104" value="(0,N)" style="edgeLabel;html=1;align=center;verticalAlign=middle;resizable=0;points=[];strokeColor=default;fontColor=default;fillColor=default;rounded=0;sketch=0;curveFitting=0;jiggle=0;shadow=1;fillStyle=auto;fontFamily=Helvetica;fontSize=12;labelBackgroundColor=none;" parent="LuY9t5Rripphyfl5IGte-101" vertex="1" connectable="0">
          <mxGeometry x="-0.8899" y="2" relative="1" as="geometry">
            <mxPoint as="offset" />
          </mxGeometry>
        </mxCell>
        <mxCell id="OiR5odNGh1hFI9hVe7ye-10" style="rounded=0;sketch=0;hachureGap=4;jiggle=0;curveFitting=0;orthogonalLoop=1;jettySize=auto;html=1;exitX=0;exitY=0.5;exitDx=0;exitDy=0;entryX=1;entryY=0.5;entryDx=0;entryDy=0;fontFamily=Helvetica;endArrow=none;endFill=0;strokeColor=default;shadow=1;fillStyle=auto;align=center;verticalAlign=middle;fontSize=12;fontColor=default;labelBackgroundColor=none;fillColor=default;" parent="1" source="LuY9t5Rripphyfl5IGte-10" target="OiR5odNGh1hFI9hVe7ye-9" edge="1">
          <mxGeometry relative="1" as="geometry" />
        </mxCell>
        <mxCell id="LuY9t5Rripphyfl5IGte-10" value="Relato" style="rounded=0;arcSize=10;whiteSpace=wrap;html=1;align=center;labelBackgroundColor=none;fillColor=default;strokeColor=default;fontColor=default;sketch=0;curveFitting=0;jiggle=0;shadow=1;fillStyle=auto;verticalAlign=middle;fontFamily=Helvetica;fontSize=12;" parent="1" vertex="1">
          <mxGeometry x="-50" y="210" width="100" height="40" as="geometry" />
        </mxCell>
        <mxCell id="LuY9t5Rripphyfl5IGte-42" style="edgeStyle=orthogonalEdgeStyle;rounded=0;orthogonalLoop=1;jettySize=auto;html=1;exitX=0;exitY=0.5;exitDx=0;exitDy=0;entryX=1;entryY=0.5;entryDx=0;entryDy=0;endArrow=none;endFill=0;labelBackgroundColor=none;strokeColor=default;fontColor=default;sketch=0;curveFitting=0;jiggle=0;shadow=1;fillStyle=auto;align=center;verticalAlign=middle;fontFamily=Helvetica;fontSize=12;fillColor=default;" parent="1" source="LuY9t5Rripphyfl5IGte-12" target="LuY9t5Rripphyfl5IGte-41" edge="1">
          <mxGeometry relative="1" as="geometry" />
        </mxCell>
        <mxCell id="LuY9t5Rripphyfl5IGte-49" value="(0,N)" style="edgeLabel;html=1;align=center;verticalAlign=middle;resizable=0;points=[];labelBackgroundColor=none;fontColor=default;rounded=0;sketch=0;curveFitting=0;jiggle=0;shadow=1;fillStyle=auto;strokeColor=default;fontFamily=Helvetica;fontSize=12;fillColor=default;" parent="LuY9t5Rripphyfl5IGte-42" vertex="1" connectable="0">
          <mxGeometry x="0.5156" y="2" relative="1" as="geometry">
            <mxPoint x="61" y="-7" as="offset" />
          </mxGeometry>
        </mxCell>
        <mxCell id="OiR5odNGh1hFI9hVe7ye-15" style="edgeStyle=orthogonalEdgeStyle;rounded=0;sketch=0;hachureGap=4;jiggle=0;curveFitting=0;orthogonalLoop=1;jettySize=auto;html=1;exitX=0.5;exitY=1;exitDx=0;exitDy=0;entryX=0.5;entryY=0;entryDx=0;entryDy=0;fontFamily=Helvetica;endArrow=none;endFill=0;strokeColor=default;shadow=1;fillStyle=auto;align=center;verticalAlign=middle;fontSize=12;fontColor=default;labelBackgroundColor=none;fillColor=default;" parent="1" source="LuY9t5Rripphyfl5IGte-12" target="OiR5odNGh1hFI9hVe7ye-12" edge="1">
          <mxGeometry relative="1" as="geometry" />
        </mxCell>
        <mxCell id="OiR5odNGh1hFI9hVe7ye-16" style="rounded=0;sketch=0;hachureGap=4;jiggle=0;curveFitting=0;orthogonalLoop=1;jettySize=auto;html=1;exitX=1;exitY=1;exitDx=0;exitDy=0;entryX=0.5;entryY=0;entryDx=0;entryDy=0;fontFamily=Helvetica;endArrow=none;endFill=0;strokeColor=default;shadow=1;fillStyle=auto;align=center;verticalAlign=middle;fontSize=12;fontColor=default;labelBackgroundColor=none;fillColor=default;" parent="1" source="LuY9t5Rripphyfl5IGte-12" target="OiR5odNGh1hFI9hVe7ye-13" edge="1">
          <mxGeometry relative="1" as="geometry" />
        </mxCell>
        <mxCell id="LuY9t5Rripphyfl5IGte-12" value="Material" style="rounded=0;arcSize=10;whiteSpace=wrap;html=1;align=center;labelBackgroundColor=none;fillColor=default;strokeColor=default;fontColor=default;sketch=0;curveFitting=0;jiggle=0;shadow=1;fillStyle=auto;verticalAlign=middle;fontFamily=Helvetica;fontSize=12;" parent="1" vertex="1">
          <mxGeometry x="300" y="410" width="100" height="40" as="geometry" />
        </mxCell>
        <mxCell id="LuY9t5Rripphyfl5IGte-26" style="rounded=0;orthogonalLoop=1;jettySize=auto;html=1;exitX=1;exitY=0.75;exitDx=0;exitDy=0;entryX=0;entryY=0.5;entryDx=0;entryDy=0;endArrow=none;endFill=0;labelBackgroundColor=none;strokeColor=default;fontColor=default;sketch=0;curveFitting=0;jiggle=0;shadow=1;fillStyle=auto;align=center;verticalAlign=middle;fontFamily=Helvetica;fontSize=12;fillColor=default;" parent="1" source="LuY9t5Rripphyfl5IGte-17" target="LuY9t5Rripphyfl5IGte-24" edge="1">
          <mxGeometry relative="1" as="geometry" />
        </mxCell>
        <mxCell id="LuY9t5Rripphyfl5IGte-66" style="rounded=0;orthogonalLoop=1;jettySize=auto;html=1;exitX=1;exitY=0;exitDx=0;exitDy=0;entryX=0.5;entryY=1;entryDx=0;entryDy=0;endArrow=none;endFill=0;labelBackgroundColor=none;strokeColor=default;fontColor=default;sketch=0;curveFitting=0;jiggle=0;shadow=1;fillStyle=auto;align=center;verticalAlign=middle;fontFamily=Helvetica;fontSize=12;fillColor=default;" parent="1" source="LuY9t5Rripphyfl5IGte-17" target="LuY9t5Rripphyfl5IGte-64" edge="1">
          <mxGeometry relative="1" as="geometry" />
        </mxCell>
        <mxCell id="LuY9t5Rripphyfl5IGte-67" style="rounded=0;orthogonalLoop=1;jettySize=auto;html=1;exitX=1;exitY=0.25;exitDx=0;exitDy=0;entryX=0;entryY=0.5;entryDx=0;entryDy=0;endArrow=none;endFill=0;labelBackgroundColor=none;strokeColor=default;fontColor=default;sketch=0;curveFitting=0;jiggle=0;shadow=1;fillStyle=auto;align=center;verticalAlign=middle;fontFamily=Helvetica;fontSize=12;fillColor=default;" parent="1" source="LuY9t5Rripphyfl5IGte-17" target="LuY9t5Rripphyfl5IGte-134" edge="1">
          <mxGeometry relative="1" as="geometry">
            <mxPoint x="827" y="405" as="targetPoint" />
          </mxGeometry>
        </mxCell>
        <mxCell id="LuY9t5Rripphyfl5IGte-102" style="edgeStyle=orthogonalEdgeStyle;rounded=0;orthogonalLoop=1;jettySize=auto;html=1;exitX=0.5;exitY=0;exitDx=0;exitDy=0;entryX=1;entryY=0.5;entryDx=0;entryDy=0;strokeColor=default;fontColor=default;fillColor=default;endArrow=none;endFill=0;sketch=0;curveFitting=0;jiggle=0;shadow=1;fillStyle=auto;align=center;verticalAlign=middle;fontFamily=Helvetica;fontSize=12;labelBackgroundColor=none;" parent="1" source="LuY9t5Rripphyfl5IGte-17" target="LuY9t5Rripphyfl5IGte-100" edge="1">
          <mxGeometry relative="1" as="geometry" />
        </mxCell>
        <mxCell id="LuY9t5Rripphyfl5IGte-105" value="(0,N))" style="edgeLabel;html=1;align=center;verticalAlign=middle;resizable=0;points=[];strokeColor=default;fontColor=default;fillColor=default;rounded=0;sketch=0;curveFitting=0;jiggle=0;shadow=1;fillStyle=auto;fontFamily=Helvetica;fontSize=12;labelBackgroundColor=none;" parent="LuY9t5Rripphyfl5IGte-102" vertex="1" connectable="0">
          <mxGeometry x="-0.6064" relative="1" as="geometry">
            <mxPoint as="offset" />
          </mxGeometry>
        </mxCell>
        <mxCell id="LuY9t5Rripphyfl5IGte-113" style="edgeStyle=orthogonalEdgeStyle;rounded=0;orthogonalLoop=1;jettySize=auto;html=1;exitX=0.5;exitY=1;exitDx=0;exitDy=0;entryX=1;entryY=0.5;entryDx=0;entryDy=0;strokeColor=default;fontColor=default;fillColor=default;endArrow=none;endFill=0;sketch=0;curveFitting=0;jiggle=0;shadow=1;fillStyle=auto;align=center;verticalAlign=middle;fontFamily=Helvetica;fontSize=12;labelBackgroundColor=none;" parent="1" source="LuY9t5Rripphyfl5IGte-17" target="LuY9t5Rripphyfl5IGte-115" edge="1">
          <mxGeometry relative="1" as="geometry" />
        </mxCell>
        <mxCell id="LuY9t5Rripphyfl5IGte-121" value="(1,1)" style="edgeLabel;html=1;align=center;verticalAlign=middle;resizable=0;points=[];strokeColor=default;fontColor=default;fillColor=default;rounded=0;sketch=0;curveFitting=0;jiggle=0;shadow=1;fillStyle=auto;fontFamily=Helvetica;fontSize=12;labelBackgroundColor=none;" parent="LuY9t5Rripphyfl5IGte-113" vertex="1" connectable="0">
          <mxGeometry x="-0.8069" relative="1" as="geometry">
            <mxPoint as="offset" />
          </mxGeometry>
        </mxCell>
        <mxCell id="LuY9t5Rripphyfl5IGte-17" value="ONG" style="rounded=0;arcSize=10;whiteSpace=wrap;html=1;align=center;labelBackgroundColor=none;fillColor=default;strokeColor=default;fontColor=default;sketch=0;curveFitting=0;jiggle=0;shadow=1;fillStyle=auto;verticalAlign=middle;fontFamily=Helvetica;fontSize=12;" parent="1" vertex="1">
          <mxGeometry x="640" y="410" width="100" height="40" as="geometry" />
        </mxCell>
        <mxCell id="LuY9t5Rripphyfl5IGte-20" style="rounded=0;orthogonalLoop=1;jettySize=auto;html=1;exitX=0.5;exitY=0;exitDx=0;exitDy=0;entryX=0.5;entryY=1;entryDx=0;entryDy=0;endArrow=none;endFill=0;labelBackgroundColor=none;strokeColor=default;fontColor=default;sketch=0;curveFitting=0;jiggle=0;shadow=1;fillStyle=auto;align=center;verticalAlign=middle;fontFamily=Helvetica;fontSize=12;fillColor=default;" parent="1" source="LuY9t5Rripphyfl5IGte-4" target="LuY9t5Rripphyfl5IGte-2" edge="1">
          <mxGeometry relative="1" as="geometry" />
        </mxCell>
        <mxCell id="LuY9t5Rripphyfl5IGte-27" style="rounded=0;orthogonalLoop=1;jettySize=auto;html=1;exitX=0;exitY=0;exitDx=0;exitDy=0;entryX=1;entryY=1;entryDx=0;entryDy=0;endArrow=none;endFill=0;labelBackgroundColor=none;strokeColor=default;fontColor=default;sketch=0;curveFitting=0;jiggle=0;shadow=1;fillStyle=auto;align=center;verticalAlign=middle;fontFamily=Helvetica;fontSize=12;fillColor=default;" parent="1" source="LuY9t5Rripphyfl5IGte-22" target="LuY9t5Rripphyfl5IGte-17" edge="1">
          <mxGeometry relative="1" as="geometry" />
        </mxCell>
        <mxCell id="LuY9t5Rripphyfl5IGte-22" value="razao_social" style="ellipse;whiteSpace=wrap;html=1;align=center;labelBackgroundColor=none;fillColor=default;strokeColor=default;fontColor=default;rounded=0;sketch=0;curveFitting=0;jiggle=0;shadow=1;fillStyle=auto;verticalAlign=middle;fontFamily=Helvetica;fontSize=12;" parent="1" vertex="1">
          <mxGeometry x="810" y="485" width="100" height="40" as="geometry" />
        </mxCell>
        <mxCell id="LuY9t5Rripphyfl5IGte-24" value="cnpj" style="ellipse;whiteSpace=wrap;html=1;align=center;fontStyle=4;labelBackgroundColor=none;fillColor=default;strokeColor=default;fontColor=default;rounded=0;sketch=0;curveFitting=0;jiggle=0;shadow=1;fillStyle=auto;verticalAlign=middle;fontFamily=Helvetica;fontSize=12;" parent="1" vertex="1">
          <mxGeometry x="810" y="435" width="100" height="40" as="geometry" />
        </mxCell>
        <mxCell id="LuY9t5Rripphyfl5IGte-28" style="rounded=0;orthogonalLoop=1;jettySize=auto;html=1;exitX=1;exitY=0.5;exitDx=0;exitDy=0;entryX=0;entryY=0.75;entryDx=0;entryDy=0;endArrow=none;endFill=0;labelBackgroundColor=none;strokeColor=default;fontColor=default;sketch=0;curveFitting=0;jiggle=0;shadow=1;fillStyle=auto;align=center;verticalAlign=middle;fontFamily=Helvetica;fontSize=12;fillColor=default;" parent="1" source="LuY9t5Rripphyfl5IGte-25" target="hKpoZKge59YQVljIcjRe-1" edge="1">
          <mxGeometry relative="1" as="geometry">
            <mxPoint x="-10" y="485" as="targetPoint" />
          </mxGeometry>
        </mxCell>
        <mxCell id="LuY9t5Rripphyfl5IGte-25" value="certificado" style="ellipse;whiteSpace=wrap;html=1;align=center;fontStyle=4;labelBackgroundColor=none;fillColor=default;strokeColor=default;fontColor=default;rounded=0;sketch=0;curveFitting=0;jiggle=0;shadow=1;fillStyle=auto;verticalAlign=middle;fontFamily=Helvetica;fontSize=12;" parent="1" vertex="1">
          <mxGeometry x="-290" y="435" width="100" height="40" as="geometry" />
        </mxCell>
        <mxCell id="LuY9t5Rripphyfl5IGte-31" value="nome_usuario" style="ellipse;whiteSpace=wrap;html=1;align=center;fontStyle=4;labelBackgroundColor=none;fillColor=default;strokeColor=default;fontColor=default;rounded=0;sketch=0;curveFitting=0;jiggle=0;shadow=1;fillStyle=auto;verticalAlign=middle;fontFamily=Helvetica;fontSize=12;" parent="1" vertex="1">
          <mxGeometry x="340" y="10" width="100" height="40" as="geometry" />
        </mxCell>
        <mxCell id="LuY9t5Rripphyfl5IGte-40" style="edgeStyle=orthogonalEdgeStyle;rounded=0;orthogonalLoop=1;jettySize=auto;html=1;exitX=1;exitY=0.5;exitDx=0;exitDy=0;entryX=0;entryY=0.5;entryDx=0;entryDy=0;endArrow=none;endFill=0;labelBackgroundColor=none;strokeColor=default;fontColor=default;sketch=0;curveFitting=0;jiggle=0;shadow=1;fillStyle=auto;align=center;verticalAlign=middle;fontFamily=Helvetica;fontSize=12;fillColor=default;" parent="1" source="LuY9t5Rripphyfl5IGte-38" target="LuY9t5Rripphyfl5IGte-4" edge="1">
          <mxGeometry relative="1" as="geometry" />
        </mxCell>
        <mxCell id="LuY9t5Rripphyfl5IGte-99" value="(1,1)" style="edgeLabel;html=1;align=center;verticalAlign=middle;resizable=0;points=[];strokeColor=default;fontColor=default;fillColor=default;rounded=0;sketch=0;curveFitting=0;jiggle=0;shadow=1;fillStyle=auto;fontFamily=Helvetica;fontSize=12;labelBackgroundColor=none;" parent="LuY9t5Rripphyfl5IGte-40" vertex="1" connectable="0">
          <mxGeometry x="0.081" y="3" relative="1" as="geometry">
            <mxPoint as="offset" />
          </mxGeometry>
        </mxCell>
        <mxCell id="LuY9t5Rripphyfl5IGte-38" value="publicar" style="shape=rhombus;perimeter=rhombusPerimeter;whiteSpace=wrap;html=1;align=center;labelBackgroundColor=none;fillColor=default;strokeColor=default;fontColor=default;rounded=0;sketch=0;curveFitting=0;jiggle=0;shadow=1;fillStyle=auto;verticalAlign=middle;fontFamily=Helvetica;fontSize=12;" parent="1" vertex="1">
          <mxGeometry x="80" y="130" width="100" height="60" as="geometry" />
        </mxCell>
        <mxCell id="LuY9t5Rripphyfl5IGte-43" style="edgeStyle=orthogonalEdgeStyle;rounded=0;orthogonalLoop=1;jettySize=auto;html=1;exitX=0;exitY=0.5;exitDx=0;exitDy=0;entryX=1;entryY=0.5;entryDx=0;entryDy=0;endArrow=none;endFill=0;labelBackgroundColor=none;strokeColor=default;fontColor=default;sketch=0;curveFitting=0;jiggle=0;shadow=1;fillStyle=auto;align=center;verticalAlign=middle;fontFamily=Helvetica;fontSize=12;fillColor=default;" parent="1" source="LuY9t5Rripphyfl5IGte-41" target="hKpoZKge59YQVljIcjRe-1" edge="1">
          <mxGeometry relative="1" as="geometry" />
        </mxCell>
        <mxCell id="LuY9t5Rripphyfl5IGte-51" value="&#39;" style="edgeLabel;html=1;align=center;verticalAlign=middle;resizable=0;points=[];labelBackgroundColor=none;fontColor=default;rounded=0;sketch=0;curveFitting=0;jiggle=0;shadow=1;fillStyle=auto;strokeColor=default;fontFamily=Helvetica;fontSize=12;fillColor=default;" parent="LuY9t5Rripphyfl5IGte-43" vertex="1" connectable="0">
          <mxGeometry x="-0.0788" y="8" relative="1" as="geometry">
            <mxPoint as="offset" />
          </mxGeometry>
        </mxCell>
        <mxCell id="LuY9t5Rripphyfl5IGte-71" value="(1,1)" style="edgeLabel;html=1;align=center;verticalAlign=middle;resizable=0;points=[];labelBackgroundColor=none;fontColor=default;rounded=0;sketch=0;curveFitting=0;jiggle=0;shadow=1;fillStyle=auto;strokeColor=default;fontFamily=Helvetica;fontSize=12;fillColor=default;" parent="LuY9t5Rripphyfl5IGte-43" vertex="1" connectable="0">
          <mxGeometry x="0.1278" y="-2" relative="1" as="geometry">
            <mxPoint y="-8" as="offset" />
          </mxGeometry>
        </mxCell>
        <mxCell id="LuY9t5Rripphyfl5IGte-41" value="submeter" style="shape=rhombus;perimeter=rhombusPerimeter;whiteSpace=wrap;html=1;align=center;labelBackgroundColor=none;fillColor=default;strokeColor=default;fontColor=default;rounded=0;sketch=0;curveFitting=0;jiggle=0;shadow=1;fillStyle=auto;verticalAlign=middle;fontFamily=Helvetica;fontSize=12;" parent="1" vertex="1">
          <mxGeometry x="80" y="405" width="100" height="50" as="geometry" />
        </mxCell>
        <mxCell id="LuY9t5Rripphyfl5IGte-46" style="edgeStyle=orthogonalEdgeStyle;rounded=0;orthogonalLoop=1;jettySize=auto;html=1;exitX=0;exitY=0.5;exitDx=0;exitDy=0;entryX=1;entryY=0.5;entryDx=0;entryDy=0;endArrow=none;endFill=0;labelBackgroundColor=none;strokeColor=default;fontColor=default;sketch=0;curveFitting=0;jiggle=0;shadow=1;fillStyle=auto;align=center;verticalAlign=middle;fontFamily=Helvetica;fontSize=12;fillColor=default;" parent="1" source="LuY9t5Rripphyfl5IGte-45" target="LuY9t5Rripphyfl5IGte-12" edge="1">
          <mxGeometry relative="1" as="geometry" />
        </mxCell>
        <mxCell id="LuY9t5Rripphyfl5IGte-47" style="edgeStyle=orthogonalEdgeStyle;rounded=0;orthogonalLoop=1;jettySize=auto;html=1;exitX=1;exitY=0.5;exitDx=0;exitDy=0;entryX=0;entryY=0.5;entryDx=0;entryDy=0;endArrow=none;endFill=0;labelBackgroundColor=none;strokeColor=default;fontColor=default;sketch=0;curveFitting=0;jiggle=0;shadow=1;fillStyle=auto;align=center;verticalAlign=middle;fontFamily=Helvetica;fontSize=12;fillColor=default;" parent="1" edge="1">
          <mxGeometry relative="1" as="geometry">
            <mxPoint x="530" y="429.58" as="sourcePoint" />
            <mxPoint x="640" y="429.58" as="targetPoint" />
          </mxGeometry>
        </mxCell>
        <mxCell id="LuY9t5Rripphyfl5IGte-68" value="(1,1)" style="edgeLabel;html=1;align=center;verticalAlign=middle;resizable=0;points=[];labelBackgroundColor=none;fontColor=default;rounded=0;sketch=0;curveFitting=0;jiggle=0;shadow=1;fillStyle=auto;strokeColor=default;fontFamily=Helvetica;fontSize=12;fillColor=default;" parent="LuY9t5Rripphyfl5IGte-47" vertex="1" connectable="0">
          <mxGeometry x="-0.2364" y="-2" relative="1" as="geometry">
            <mxPoint x="38" y="-7" as="offset" />
          </mxGeometry>
        </mxCell>
        <mxCell id="LuY9t5Rripphyfl5IGte-45" value="submeter" style="shape=rhombus;perimeter=rhombusPerimeter;whiteSpace=wrap;html=1;align=center;labelBackgroundColor=none;fillColor=default;strokeColor=default;fontColor=default;rounded=0;sketch=0;curveFitting=0;jiggle=0;shadow=1;fillStyle=auto;verticalAlign=middle;fontFamily=Helvetica;fontSize=12;" parent="1" vertex="1">
          <mxGeometry x="480" y="405" width="100" height="50" as="geometry" />
        </mxCell>
        <mxCell id="LuY9t5Rripphyfl5IGte-59" value="senha" style="ellipse;whiteSpace=wrap;html=1;align=center;labelBackgroundColor=none;fillColor=default;strokeColor=default;fontColor=default;rounded=0;sketch=0;curveFitting=0;jiggle=0;shadow=1;fillStyle=auto;verticalAlign=middle;fontFamily=Helvetica;fontSize=12;" parent="1" vertex="1">
          <mxGeometry x="-290" y="385" width="100" height="40" as="geometry" />
        </mxCell>
        <mxCell id="LuY9t5Rripphyfl5IGte-64" value="senha" style="ellipse;whiteSpace=wrap;html=1;align=center;labelBackgroundColor=none;fillColor=default;strokeColor=default;fontColor=default;rounded=0;sketch=0;curveFitting=0;jiggle=0;shadow=1;fillStyle=auto;verticalAlign=middle;fontFamily=Helvetica;fontSize=12;" parent="1" vertex="1">
          <mxGeometry x="790" y="335" width="100" height="40" as="geometry" />
        </mxCell>
        <mxCell id="LuY9t5Rripphyfl5IGte-84" style="edgeStyle=orthogonalEdgeStyle;rounded=0;orthogonalLoop=1;jettySize=auto;html=1;exitX=0.5;exitY=1;exitDx=0;exitDy=0;endArrow=none;endFill=0;labelBackgroundColor=none;strokeColor=default;fontColor=default;entryX=0.5;entryY=0;entryDx=0;entryDy=0;sketch=0;curveFitting=0;jiggle=0;shadow=1;fillStyle=auto;align=center;verticalAlign=middle;fontFamily=Helvetica;fontSize=12;fillColor=default;" parent="1" source="LuY9t5Rripphyfl5IGte-76" target="LuY9t5Rripphyfl5IGte-12" edge="1">
          <mxGeometry relative="1" as="geometry">
            <mxPoint x="320" y="410" as="targetPoint" />
            <Array as="points" />
          </mxGeometry>
        </mxCell>
        <mxCell id="LuY9t5Rripphyfl5IGte-106" value="(0,N)" style="edgeLabel;html=1;align=center;verticalAlign=middle;resizable=0;points=[];strokeColor=default;fontColor=default;fillColor=default;rounded=0;sketch=0;curveFitting=0;jiggle=0;shadow=1;fillStyle=auto;fontFamily=Helvetica;fontSize=12;labelBackgroundColor=none;" parent="LuY9t5Rripphyfl5IGte-84" vertex="1" connectable="0">
          <mxGeometry x="0.5333" relative="1" as="geometry">
            <mxPoint as="offset" />
          </mxGeometry>
        </mxCell>
        <mxCell id="LuY9t5Rripphyfl5IGte-76" value="visualizar" style="shape=rhombus;perimeter=rhombusPerimeter;whiteSpace=wrap;html=1;align=center;labelBackgroundColor=none;fillColor=default;strokeColor=default;fontColor=default;rounded=0;sketch=0;curveFitting=0;jiggle=0;shadow=1;fillStyle=auto;verticalAlign=middle;fontFamily=Helvetica;fontSize=12;" parent="1" vertex="1">
          <mxGeometry x="300" y="255" width="100" height="50" as="geometry" />
        </mxCell>
        <mxCell id="LuY9t5Rripphyfl5IGte-90" style="edgeStyle=orthogonalEdgeStyle;rounded=0;orthogonalLoop=1;jettySize=auto;html=1;exitX=0.5;exitY=1;exitDx=0;exitDy=0;entryX=0.25;entryY=0;entryDx=0;entryDy=0;endArrow=none;endFill=0;labelBackgroundColor=none;strokeColor=default;fontColor=default;sketch=0;curveFitting=0;jiggle=0;shadow=1;fillStyle=auto;align=center;verticalAlign=middle;fontFamily=Helvetica;fontSize=12;fillColor=default;" parent="1" source="LuY9t5Rripphyfl5IGte-87" target="hKpoZKge59YQVljIcjRe-1" edge="1">
          <mxGeometry relative="1" as="geometry">
            <Array as="points">
              <mxPoint x="-60" y="410" />
            </Array>
          </mxGeometry>
        </mxCell>
        <mxCell id="LuY9t5Rripphyfl5IGte-92" value="(0,N)" style="edgeLabel;html=1;align=center;verticalAlign=middle;resizable=0;points=[];labelBackgroundColor=none;fontColor=default;rounded=0;sketch=0;curveFitting=0;jiggle=0;shadow=1;fillStyle=auto;strokeColor=default;fontFamily=Helvetica;fontSize=12;fillColor=default;" parent="LuY9t5Rripphyfl5IGte-90" vertex="1" connectable="0">
          <mxGeometry x="0.1375" relative="1" as="geometry">
            <mxPoint y="-12" as="offset" />
          </mxGeometry>
        </mxCell>
        <mxCell id="LuY9t5Rripphyfl5IGte-128" style="edgeStyle=orthogonalEdgeStyle;rounded=0;orthogonalLoop=1;jettySize=auto;html=1;exitX=1;exitY=0.5;exitDx=0;exitDy=0;entryX=0.5;entryY=1;entryDx=0;entryDy=0;strokeColor=default;fontColor=default;fillColor=default;endArrow=none;endFill=0;sketch=0;curveFitting=0;jiggle=0;shadow=1;fillStyle=auto;align=center;verticalAlign=middle;fontFamily=Helvetica;fontSize=12;labelBackgroundColor=none;" parent="1" source="LuY9t5Rripphyfl5IGte-87" target="LuY9t5Rripphyfl5IGte-10" edge="1">
          <mxGeometry relative="1" as="geometry">
            <Array as="points">
              <mxPoint y="315" />
            </Array>
          </mxGeometry>
        </mxCell>
        <mxCell id="LuY9t5Rripphyfl5IGte-129" value="(0,N)" style="edgeLabel;html=1;align=center;verticalAlign=middle;resizable=0;points=[];strokeColor=default;fontColor=default;fillColor=default;rounded=0;sketch=0;curveFitting=0;jiggle=0;shadow=1;fillStyle=auto;fontFamily=Helvetica;fontSize=12;labelBackgroundColor=none;" parent="LuY9t5Rripphyfl5IGte-128" vertex="1" connectable="0">
          <mxGeometry x="0.3579" y="1" relative="1" as="geometry">
            <mxPoint as="offset" />
          </mxGeometry>
        </mxCell>
        <mxCell id="LuY9t5Rripphyfl5IGte-87" value="interagir" style="shape=rhombus;perimeter=rhombusPerimeter;whiteSpace=wrap;html=1;align=center;labelBackgroundColor=none;fillColor=default;strokeColor=default;fontColor=default;rounded=0;sketch=0;curveFitting=0;jiggle=0;shadow=1;fillStyle=auto;verticalAlign=middle;fontFamily=Helvetica;fontSize=12;" parent="1" vertex="1">
          <mxGeometry x="-110" y="290" width="100" height="50" as="geometry" />
        </mxCell>
        <mxCell id="LuY9t5Rripphyfl5IGte-100" value="interagir" style="shape=rhombus;perimeter=rhombusPerimeter;whiteSpace=wrap;html=1;align=center;labelBackgroundColor=none;fillColor=default;strokeColor=default;fontColor=default;rounded=0;sketch=0;curveFitting=0;jiggle=0;shadow=1;fillStyle=auto;verticalAlign=middle;fontFamily=Helvetica;fontSize=12;" parent="1" vertex="1">
          <mxGeometry x="510" y="205" width="100" height="50" as="geometry" />
        </mxCell>
        <mxCell id="OiR5odNGh1hFI9hVe7ye-5" style="rounded=0;sketch=0;hachureGap=4;jiggle=0;curveFitting=0;orthogonalLoop=1;jettySize=auto;html=1;exitX=0.5;exitY=1;exitDx=0;exitDy=0;entryX=0.5;entryY=0;entryDx=0;entryDy=0;fontFamily=Helvetica;strokeColor=default;endArrow=none;endFill=0;shadow=1;fillStyle=auto;align=center;verticalAlign=middle;fontSize=12;fontColor=default;labelBackgroundColor=none;fillColor=default;" parent="1" source="LuY9t5Rripphyfl5IGte-108" target="OiR5odNGh1hFI9hVe7ye-3" edge="1">
          <mxGeometry relative="1" as="geometry" />
        </mxCell>
        <mxCell id="OiR5odNGh1hFI9hVe7ye-7" style="rounded=0;sketch=0;hachureGap=4;jiggle=0;curveFitting=0;orthogonalLoop=1;jettySize=auto;html=1;exitX=0.5;exitY=1;exitDx=0;exitDy=0;entryX=0.5;entryY=0;entryDx=0;entryDy=0;fontFamily=Helvetica;strokeColor=default;endArrow=none;endFill=0;shadow=1;fillStyle=auto;align=center;verticalAlign=middle;fontSize=12;fontColor=default;labelBackgroundColor=none;fillColor=default;" parent="1" source="LuY9t5Rripphyfl5IGte-108" target="OiR5odNGh1hFI9hVe7ye-6" edge="1">
          <mxGeometry relative="1" as="geometry" />
        </mxCell>
        <mxCell id="LuY9t5Rripphyfl5IGte-108" value="Denuncia" style="rounded=0;arcSize=10;whiteSpace=wrap;html=1;align=center;labelBackgroundColor=none;fillColor=default;strokeColor=default;fontColor=default;sketch=0;curveFitting=0;jiggle=0;shadow=1;fillStyle=auto;verticalAlign=middle;fontFamily=Helvetica;fontSize=12;" parent="1" vertex="1">
          <mxGeometry x="270" y="600" width="100" height="40" as="geometry" />
        </mxCell>
        <mxCell id="LuY9t5Rripphyfl5IGte-112" style="edgeStyle=orthogonalEdgeStyle;rounded=0;orthogonalLoop=1;jettySize=auto;html=1;exitX=1;exitY=0.5;exitDx=0;exitDy=0;entryX=0;entryY=0.5;entryDx=0;entryDy=0;strokeColor=default;fontColor=default;fillColor=default;endArrow=none;endFill=0;sketch=0;curveFitting=0;jiggle=0;shadow=1;fillStyle=auto;align=center;verticalAlign=middle;fontFamily=Helvetica;fontSize=12;labelBackgroundColor=none;" parent="1" source="LuY9t5Rripphyfl5IGte-109" target="LuY9t5Rripphyfl5IGte-108" edge="1">
          <mxGeometry relative="1" as="geometry" />
        </mxCell>
        <mxCell id="LuY9t5Rripphyfl5IGte-122" value="(0,N)" style="edgeLabel;html=1;align=center;verticalAlign=middle;resizable=0;points=[];strokeColor=default;fontColor=default;fillColor=default;rounded=0;sketch=0;curveFitting=0;jiggle=0;shadow=1;fillStyle=auto;fontFamily=Helvetica;fontSize=12;labelBackgroundColor=none;" parent="LuY9t5Rripphyfl5IGte-112" vertex="1" connectable="0">
          <mxGeometry x="0.1462" y="-1" relative="1" as="geometry">
            <mxPoint as="offset" />
          </mxGeometry>
        </mxCell>
        <mxCell id="LuY9t5Rripphyfl5IGte-109" value="fazer" style="shape=rhombus;perimeter=rhombusPerimeter;whiteSpace=wrap;html=1;align=center;labelBackgroundColor=none;fillColor=default;strokeColor=default;fontColor=default;rounded=0;sketch=0;curveFitting=0;jiggle=0;shadow=1;fillStyle=auto;verticalAlign=middle;fontFamily=Helvetica;fontSize=12;" parent="1" vertex="1">
          <mxGeometry x="40" y="595" width="100" height="50" as="geometry" />
        </mxCell>
        <mxCell id="LuY9t5Rripphyfl5IGte-116" style="edgeStyle=orthogonalEdgeStyle;rounded=0;orthogonalLoop=1;jettySize=auto;html=1;exitX=0;exitY=0.5;exitDx=0;exitDy=0;entryX=1;entryY=0.5;entryDx=0;entryDy=0;strokeColor=default;fontColor=default;fillColor=default;endArrow=none;endFill=0;sketch=0;curveFitting=0;jiggle=0;shadow=1;fillStyle=auto;align=center;verticalAlign=middle;fontFamily=Helvetica;fontSize=12;labelBackgroundColor=none;" parent="1" source="LuY9t5Rripphyfl5IGte-115" target="LuY9t5Rripphyfl5IGte-108" edge="1">
          <mxGeometry relative="1" as="geometry" />
        </mxCell>
        <mxCell id="LuY9t5Rripphyfl5IGte-120" value="(0,N)" style="edgeLabel;html=1;align=center;verticalAlign=middle;resizable=0;points=[];strokeColor=default;fontColor=default;fillColor=default;rounded=0;sketch=0;curveFitting=0;jiggle=0;shadow=1;fillStyle=auto;fontFamily=Helvetica;fontSize=12;labelBackgroundColor=none;" parent="LuY9t5Rripphyfl5IGte-116" vertex="1" connectable="0">
          <mxGeometry x="0.3267" relative="1" as="geometry">
            <mxPoint as="offset" />
          </mxGeometry>
        </mxCell>
        <mxCell id="LuY9t5Rripphyfl5IGte-115" value="fazer" style="shape=rhombus;perimeter=rhombusPerimeter;whiteSpace=wrap;html=1;align=center;labelBackgroundColor=none;fillColor=default;strokeColor=default;fontColor=default;rounded=0;sketch=0;curveFitting=0;jiggle=0;shadow=1;fillStyle=auto;verticalAlign=middle;fontFamily=Helvetica;fontSize=12;" parent="1" vertex="1">
          <mxGeometry x="470" y="595" width="100" height="50" as="geometry" />
        </mxCell>
        <mxCell id="LuY9t5Rripphyfl5IGte-119" style="edgeStyle=orthogonalEdgeStyle;rounded=0;orthogonalLoop=1;jettySize=auto;html=1;exitX=0.5;exitY=1;exitDx=0;exitDy=0;entryX=0.5;entryY=0;entryDx=0;entryDy=0;strokeColor=default;fontColor=default;fillColor=default;endArrow=none;endFill=0;sketch=0;curveFitting=0;jiggle=0;shadow=1;fillStyle=auto;align=center;verticalAlign=middle;fontFamily=Helvetica;fontSize=12;labelBackgroundColor=none;" parent="1" source="LuY9t5Rripphyfl5IGte-117" target="LuY9t5Rripphyfl5IGte-108" edge="1">
          <mxGeometry relative="1" as="geometry" />
        </mxCell>
        <mxCell id="LuY9t5Rripphyfl5IGte-125" value="(0,N)" style="edgeLabel;html=1;align=center;verticalAlign=middle;resizable=0;points=[];strokeColor=default;fontColor=default;fillColor=default;rounded=0;sketch=0;curveFitting=0;jiggle=0;shadow=1;fillStyle=auto;fontFamily=Helvetica;fontSize=12;labelBackgroundColor=none;" parent="LuY9t5Rripphyfl5IGte-119" vertex="1" connectable="0">
          <mxGeometry x="0.2389" relative="1" as="geometry">
            <mxPoint as="offset" />
          </mxGeometry>
        </mxCell>
        <mxCell id="LuY9t5Rripphyfl5IGte-117" value="fazer" style="shape=rhombus;perimeter=rhombusPerimeter;whiteSpace=wrap;html=1;align=center;labelBackgroundColor=none;fillColor=default;strokeColor=default;fontColor=default;rounded=0;sketch=0;curveFitting=0;jiggle=0;shadow=1;fillStyle=auto;verticalAlign=middle;fontFamily=Helvetica;fontSize=12;" parent="1" vertex="1">
          <mxGeometry x="170" y="485" width="100" height="50" as="geometry" />
        </mxCell>
        <mxCell id="LuY9t5Rripphyfl5IGte-134" value="nome_usuario" style="ellipse;whiteSpace=wrap;html=1;align=center;labelBackgroundColor=none;fillColor=default;strokeColor=default;fontColor=default;rounded=0;sketch=0;curveFitting=0;jiggle=0;shadow=1;fillStyle=auto;verticalAlign=middle;fontFamily=Helvetica;fontSize=12;" parent="1" vertex="1">
          <mxGeometry x="820" y="385" width="100" height="40" as="geometry" />
        </mxCell>
        <mxCell id="LuY9t5Rripphyfl5IGte-135" value="nome_usuario" style="shape=ellipse;whiteSpace=wrap;html=1;align=center;labelBackgroundColor=none;rounded=0;sketch=0;curveFitting=0;jiggle=0;shadow=1;fillStyle=auto;strokeColor=default;verticalAlign=middle;fontFamily=Helvetica;fontSize=12;fontColor=default;fillColor=default;" parent="1" vertex="1">
          <mxGeometry x="-310" y="335" width="100" height="40" as="geometry" />
        </mxCell>
        <mxCell id="OiR5odNGh1hFI9hVe7ye-2" value="(0,N)" style="edgeLabel;html=1;align=center;verticalAlign=middle;resizable=0;points=[];strokeColor=default;fontColor=default;fillColor=default;rounded=0;sketch=0;curveFitting=0;jiggle=0;shadow=1;fillStyle=auto;fontFamily=Helvetica;fontSize=12;labelBackgroundColor=none;" parent="1" vertex="1" connectable="0">
          <mxGeometry x="380" y="410.002380952381" as="geometry">
            <mxPoint x="55" y="14" as="offset" />
          </mxGeometry>
        </mxCell>
        <mxCell id="OiR5odNGh1hFI9hVe7ye-3" value="endereÃ§o" style="ellipse;whiteSpace=wrap;html=1;align=center;labelBackgroundColor=none;fillColor=default;strokeColor=default;fontColor=default;rounded=0;sketch=0;curveFitting=0;jiggle=0;shadow=1;fillStyle=auto;verticalAlign=middle;fontFamily=Helvetica;fontSize=12;" parent="1" vertex="1">
          <mxGeometry x="190" y="680" width="100" height="40" as="geometry" />
        </mxCell>
        <mxCell id="OiR5odNGh1hFI9hVe7ye-6" value="data" style="ellipse;whiteSpace=wrap;html=1;align=center;labelBackgroundColor=none;fillColor=default;strokeColor=default;fontColor=default;rounded=0;sketch=0;curveFitting=0;jiggle=0;shadow=1;fillStyle=auto;verticalAlign=middle;fontFamily=Helvetica;fontSize=12;" parent="1" vertex="1">
          <mxGeometry x="350" y="680" width="100" height="40" as="geometry" />
        </mxCell>
        <mxCell id="OiR5odNGh1hFI9hVe7ye-11" style="rounded=0;sketch=0;hachureGap=4;jiggle=0;curveFitting=0;orthogonalLoop=1;jettySize=auto;html=1;exitX=1;exitY=0.5;exitDx=0;exitDy=0;entryX=0;entryY=0.5;entryDx=0;entryDy=0;fontFamily=Helvetica;endArrow=none;endFill=0;strokeColor=default;shadow=1;fillStyle=auto;align=center;verticalAlign=middle;fontSize=12;fontColor=default;labelBackgroundColor=none;fillColor=default;" parent="1" source="OiR5odNGh1hFI9hVe7ye-8" target="LuY9t5Rripphyfl5IGte-10" edge="1">
          <mxGeometry relative="1" as="geometry" />
        </mxCell>
        <mxCell id="OiR5odNGh1hFI9hVe7ye-8" value="texto" style="ellipse;whiteSpace=wrap;html=1;align=center;labelBackgroundColor=none;fillColor=default;strokeColor=default;fontColor=default;rounded=0;sketch=0;curveFitting=0;jiggle=0;shadow=1;fillStyle=auto;verticalAlign=middle;fontFamily=Helvetica;fontSize=12;" parent="1" vertex="1">
          <mxGeometry x="-200" y="160" width="100" height="40" as="geometry" />
        </mxCell>
        <mxCell id="OiR5odNGh1hFI9hVe7ye-9" value="comentario" style="ellipse;whiteSpace=wrap;html=1;align=center;labelBackgroundColor=none;fillColor=default;strokeColor=default;fontColor=default;rounded=0;sketch=0;curveFitting=0;jiggle=0;shadow=1;fillStyle=auto;verticalAlign=middle;fontFamily=Helvetica;fontSize=12;" parent="1" vertex="1">
          <mxGeometry x="-200" y="230" width="100" height="40" as="geometry" />
        </mxCell>
        <mxCell id="OiR5odNGh1hFI9hVe7ye-12" value="conteudo" style="ellipse;whiteSpace=wrap;html=1;align=center;labelBackgroundColor=none;fillColor=default;strokeColor=default;fontColor=default;rounded=0;sketch=0;curveFitting=0;jiggle=0;shadow=1;fillStyle=auto;verticalAlign=middle;fontFamily=Helvetica;fontSize=12;" parent="1" vertex="1">
          <mxGeometry x="300" y="475" width="100" height="40" as="geometry" />
        </mxCell>
        <mxCell id="OiR5odNGh1hFI9hVe7ye-13" value="comentario" style="ellipse;whiteSpace=wrap;html=1;align=center;labelBackgroundColor=none;fillColor=default;strokeColor=default;fontColor=default;rounded=0;sketch=0;curveFitting=0;jiggle=0;shadow=1;fillStyle=auto;verticalAlign=middle;fontFamily=Helvetica;fontSize=12;" parent="1" vertex="1">
          <mxGeometry x="414" y="475" width="100" height="40" as="geometry" />
        </mxCell>
      </root>
    </mxGraphModel>
  </diagram>
</mxfile>
